<svg width="11" height="11" viewBox="0 0 11 11" fill="none" xmlns="http://www.w3.org/2000/svg">
<g id="Group 20651">
<path id="Arrow 3" d="M9.93537 4.70304C10.0688 4.73873 10.2058 4.65954 10.2415 4.52617L10.8231 2.35265C10.8588 2.21927 10.7797 2.08221 10.6463 2.04652C10.5129 2.01082 10.3758 2.09001 10.3401 2.22339L9.82312 4.15541L7.89111 3.63839C7.75773 3.6027 7.62067 3.68189 7.58498 3.81526C7.54929 3.94864 7.62848 4.0857 7.76185 4.12139L9.93537 4.70304ZM1.21647 4.58661C2.32623 2.66586 3.41143 1.74954 4.38647 1.41203C5.35294 1.07748 6.26095 1.29494 7.06257 1.75741C7.86851 2.22238 8.54903 2.92619 9.03219 3.52351C9.27256 3.82067 9.4614 4.0881 9.58984 4.28076C9.65402 4.37703 9.70299 4.45444 9.73566 4.50734C9.752 4.53379 9.76424 4.55409 9.77227 4.56754C9.77628 4.57426 9.77924 4.57928 9.78112 4.58248C9.78207 4.58409 9.78274 4.58524 9.78314 4.58593C9.78334 4.58628 9.78347 4.58651 9.78354 4.58662C9.78357 4.58668 9.78357 4.58667 9.78359 4.5867C9.78357 4.58667 9.78353 4.58661 10 4.46154C10.2165 4.33647 10.2164 4.33635 10.2163 4.3362C10.2163 4.33611 10.2162 4.33593 10.216 4.33575C10.2158 4.33539 10.2156 4.33491 10.2152 4.33431C10.2145 4.33313 10.2136 4.33147 10.2123 4.32936C10.2098 4.32514 10.2063 4.3191 10.2016 4.31133C10.1924 4.29578 10.1788 4.2733 10.1611 4.2446C10.1256 4.18722 10.0735 4.1049 10.0059 4.00341C9.87064 3.80057 9.67275 3.52037 9.42093 3.20906C8.91972 2.58943 8.19399 1.83291 7.31243 1.32432C6.42655 0.813235 5.36581 0.543915 4.22291 0.939535C3.08857 1.33219 1.92377 2.36298 0.783534 4.33647L1.21647 4.58661Z" fill="black"/>
<path id="Arrow 4" d="M1.06463 6.29696C0.93125 6.26127 0.794191 6.34046 0.758498 6.47383L0.176852 8.64735C0.141159 8.78073 0.220349 8.91779 0.353727 8.95348C0.487105 8.98918 0.624164 8.90999 0.659857 8.77661L1.17688 6.84459L3.10889 7.36161C3.24227 7.3973 3.37933 7.31811 3.41502 7.18474C3.45071 7.05136 3.37153 6.9143 3.23815 6.87861L1.06463 6.29696ZM9.78353 6.41339C8.67377 8.33414 7.58857 9.25046 6.61353 9.58797C5.64706 9.92252 4.73905 9.70506 3.93743 9.24259C3.13149 8.77762 2.45097 8.07381 1.96781 7.47649C1.72744 7.17933 1.5386 6.9119 1.41016 6.71924C1.34598 6.62297 1.29701 6.54556 1.26434 6.49266C1.24801 6.46621 1.23576 6.44591 1.22773 6.43246C1.22372 6.42574 1.22076 6.42072 1.21888 6.41752C1.21793 6.41591 1.21726 6.41476 1.21686 6.41407C1.21666 6.41372 1.21653 6.41349 1.21646 6.41338C1.21643 6.41332 1.21643 6.41333 1.21641 6.4133C1.21643 6.41333 1.21647 6.41339 1 6.53846C0.783534 6.66353 0.783604 6.66365 0.783692 6.6638C0.783744 6.66389 0.783848 6.66407 0.783953 6.66425C0.784161 6.66461 0.784438 6.66509 0.784785 6.66569C0.785476 6.66687 0.786443 6.66853 0.787681 6.67064C0.790159 6.67486 0.793724 6.6809 0.798363 6.68867C0.80764 6.70422 0.821209 6.7267 0.838934 6.7554C0.874377 6.81278 0.926477 6.8951 0.994136 6.99659C1.12936 7.19943 1.32725 7.47963 1.57907 7.79094C2.08028 8.41057 2.80601 9.16709 3.68757 9.67568C4.57345 10.1868 5.63419 10.4561 6.77709 10.0605C7.91143 9.66781 9.07623 8.63702 10.2165 6.66353L9.78353 6.41339Z" fill="black"/>
</g>
</svg>
