<svg width="350" height="72" viewBox="0 0 350 72" fill="none" xmlns="http://www.w3.org/2000/svg">
<g clip-path="url(#clip0_3567_3556)">
<mask id="mask0_3567_3556" style="mask-type:luminance" maskUnits="userSpaceOnUse" x="60" y="0" width="230" height="40">
<path d="M290 0H60V40H290V0Z" fill="white"/>
</mask>
<g mask="url(#mask0_3567_3556)">
<path d="M253.429 11.5038H248.909V32.3494H253.429V11.5038Z" fill="#1B1C29"/>
<path d="M79.38 19.2578C80.3039 20.5055 80.7693 21.9915 80.7693 23.7227C80.7693 26.106 79.93 28.0615 78.2446 29.5895C76.5589 31.1176 74.3516 31.8815 71.6153 31.8815H60L60 3.83037H69.3938C71.9327 3.83037 73.9778 4.52429 75.5294 5.91213C77.0808 7.29997 77.8636 9.10133 77.8636 11.3093C77.8636 13.5172 77.0668 15.2486 75.4659 16.5803C77.1513 17.12 78.449 18.0101 79.38 19.2578ZM64.4501 7.77659V15.3396H68.9706C70.367 15.3396 71.446 14.9892 72.2006 14.2953C72.9552 13.6013 73.3361 12.6761 73.3361 11.5126C73.3361 10.349 72.9552 9.43778 72.2006 8.77193C71.446 8.10608 70.367 7.76963 68.9706 7.76963L64.4501 7.76956V7.77659ZM74.8876 26.7578C75.755 25.9798 76.1922 24.9213 76.1922 23.5895C76.1922 22.2578 75.755 21.1923 74.8876 20.4004C74.0202 19.6082 72.8 19.2088 71.2344 19.2088H64.4501L64.4501 27.9213H71.2344C72.8 27.9213 74.0202 27.5288 74.8876 26.7507V26.7578Z" fill="#1B1C29"/>
<path d="M118.93 11.0032V14.9565H117.562C115.792 14.9565 114.325 15.4612 113.154 16.4635C111.983 17.4729 111.398 18.8957 111.398 20.7321V31.8699H106.905L106.906 10.9962H111.095V13.7158C112.576 11.7602 114.614 10.7859 117.209 10.7859C117.837 10.7859 118.408 10.8561 118.923 10.9962L118.93 11.0032Z" fill="#1B1C29"/>
<path d="M121.164 0L125.657 7.85222e-07V31.8783H121.164V0ZM140.283 31.8783H134.895L125.784 20.1447L133.992 11.0046H139.55L131.08 20.1868L140.276 31.8783H140.283Z" fill="#1B1C29"/>
<path d="M168.381 31.8783H163.888V0L168.381 7.85222e-07V31.8783Z" fill="#1B1C29"/>
<path d="M235.431 28.3145H246.559V32.3519H230.896V4.30064H235.431V28.3145Z" fill="#1B1C29"/>
<path d="M93.0479 10.6252C87.2015 10.6252 82.4482 15.4617 82.4482 21.5037C82.4482 27.5456 87.6035 32.4382 93.8025 32.4382C97.0466 32.4382 99.9452 31.1134 102.026 28.9825L99.8817 25.8774C98.4923 27.4895 96.4048 28.527 94.0353 28.527C90.3891 28.527 87.4342 26.1648 86.6796 23.0037H103.535C103.591 22.485 103.591 22.0223 103.591 21.5037C103.591 15.4617 98.9014 10.6252 93.0479 10.6252ZM86.9687 19.436C87.7234 16.499 90.1564 14.3682 93.0479 14.3682C95.9394 14.3682 98.3795 16.499 99.0706 19.436H86.9687Z" fill="#1B1C29"/>
<path d="M289.994 21.9737C289.994 15.9318 285.249 11.0953 279.395 11.0953C273.542 11.0953 268.796 15.9318 268.796 21.9737C268.796 28.0158 273.951 32.9082 280.149 32.9082C283.394 32.9082 286.348 31.5835 288.373 29.4527L286.229 26.3476C284.839 27.9597 282.752 28.9972 280.382 28.9972C276.793 28.9972 273.782 26.635 273.028 23.4737H289.882C289.939 22.955 289.994 22.4925 289.994 21.9737ZM273.373 19.906C274.07 16.9692 276.496 14.8384 279.395 14.8384C282.295 14.8384 284.727 16.9692 285.475 19.906H273.373Z" fill="#1B1C29"/>
<path d="M150.49 10.6252C144.643 10.6252 139.89 15.4617 139.89 21.5037C139.89 27.5456 145.045 32.4382 151.244 32.4382C154.488 32.4382 157.443 31.1134 159.468 28.9825L157.323 25.8774C155.934 27.4895 153.847 28.527 151.477 28.527C147.888 28.527 144.876 26.1648 144.121 23.0037H160.976C161.033 22.485 161.09 22.0223 161.09 21.5037C161.09 15.4617 156.343 10.6252 150.49 10.6252ZM144.467 19.436C145.165 16.499 147.591 14.3682 150.49 14.3682C153.388 14.3682 155.821 16.499 156.569 19.436H144.467Z" fill="#1B1C29"/>
<path d="M183.334 28.527C179.744 28.527 176.733 26.1648 175.978 23.0037H192.833C192.889 22.485 192.946 22.0223 192.946 21.5037C192.946 15.4617 188.2 10.6252 182.347 10.6252C176.493 10.6252 171.747 15.4617 171.747 21.5037C171.747 27.5456 176.902 32.4382 183.101 32.4382C186.345 32.4382 189.3 31.1134 191.324 28.9825L189.18 25.8774C187.791 27.4895 185.703 28.527 183.334 28.527ZM182.347 14.3682C185.245 14.3682 187.678 16.499 188.426 19.436H176.324C177.022 16.499 179.448 14.3682 182.347 14.3682Z" fill="#1B1C29"/>
<path d="M248.965 8.16283C247.751 6.95725 247.751 4.99465 248.965 3.78204C250.178 2.57644 252.16 2.57644 253.372 3.78204C254.586 4.98765 254.586 6.95725 253.372 8.16283C252.16 9.36846 250.185 9.36846 248.965 8.16283Z" fill="#1B1C29"/>
<path d="M264.967 4.84342C265.65 4.3037 266.679 4.03735 268.047 4.03735C268.563 4.03735 269.161 4.0794 269.846 4.16352V0.385511C269.021 0.133177 268.047 1.93523e-07 266.94 0C264.634 -4.03096e-07 262.807 0.602798 261.469 1.80839C260.127 3.014 259.458 4.83642 259.458 7.26863V11.4742H256.468V15.3433H259.648V31.5209C259.648 32.8526 259.303 33.7848 258.618 34.3246C257.97 34.8361 257.018 35.0956 255.755 35.1236V39.1469C255.981 39.1609 256.207 39.1679 256.46 39.1679C258.766 39.1679 260.593 38.5651 261.933 37.3595C263.188 36.2311 263.851 34.5558 263.928 32.3409H263.942V15.3364H268.901V11.4672H263.942V7.64015C263.942 6.30836 264.289 5.37612 264.973 4.83642L264.967 4.84342Z" fill="#1B1C29"/>
<path d="M209.742 11.0025L203.543 26.2197L197.512 11.0025H192.682L201.067 30.9369L200.214 32.8926C199.699 34.0561 199.071 34.8551 198.33 35.2967C197.59 35.7384 196.694 35.9557 195.637 35.9557C195.58 35.9557 195.509 35.9557 195.432 35.9557V39.9439C195.827 39.979 196.222 40 196.624 40C198.422 40 199.932 39.5374 201.159 38.6192C202.386 37.701 203.436 36.243 204.324 34.2594L214.545 11.0096H209.755L209.742 11.0025Z" fill="#1B1C29"/>
</g>
<path d="M1.818 65.856C1.998 64.896 2.274 63.87 2.646 62.778C3.018 61.686 3.432 60.768 3.888 60.024C4.344 59.268 4.782 58.89 5.202 58.89C5.43 58.89 5.652 58.974 5.868 59.142C6.084 59.31 6.192 59.508 6.192 59.736C6.192 59.916 6.132 60.066 6.012 60.186C5.904 60.294 5.766 60.348 5.598 60.348C5.466 60.348 5.358 60.324 5.274 60.276C5.202 60.216 5.124 60.126 5.04 60.006C4.992 59.946 4.938 59.892 4.878 59.844C4.818 59.784 4.752 59.754 4.68 59.754C4.416 59.754 4.098 60.102 3.726 60.798C3.366 61.494 3.024 62.328 2.7 63.3C2.376 64.272 2.142 65.13 1.998 65.874L1.818 65.856ZM1.422 66.144C1.266 66.144 1.158 66.132 1.098 66.108C1.05 66.096 1.026 66.072 1.026 66.036L1.116 65.622L1.296 64.668L1.89 61.338C1.962 60.942 1.998 60.63 1.998 60.402C1.998 59.862 1.854 59.592 1.566 59.592C1.302 59.592 0.936 59.814 0.468 60.258L0.432 60.276C0.396 60.276 0.366 60.258 0.342 60.222C0.318 60.174 0.312 60.138 0.324 60.114C0.696 59.706 1.038 59.4 1.35 59.196C1.662 58.992 1.968 58.89 2.268 58.89C2.508 58.89 2.682 58.968 2.79 59.124C2.91 59.28 2.97 59.544 2.97 59.916C2.97 60.24 2.916 60.702 2.808 61.302L1.998 65.874C1.962 66.054 1.77 66.144 1.422 66.144ZM8.59078 66.216C7.83478 66.216 7.25878 65.976 6.86278 65.496C6.47878 65.004 6.28678 64.374 6.28678 63.606C6.28678 63.342 6.31678 63.03 6.37678 62.67C6.48478 62.058 6.73678 61.458 7.13278 60.87C7.52878 60.27 8.02078 59.778 8.60878 59.394C9.20878 59.01 9.83278 58.818 10.4808 58.818C10.9128 58.818 11.2368 58.908 11.4528 59.088C11.6808 59.256 11.7648 59.49 11.7048 59.79C11.6328 60.162 11.3688 60.522 10.9128 60.87C10.4688 61.206 9.89878 61.494 9.20278 61.734C8.51878 61.962 7.79278 62.118 7.02478 62.202L7.06078 61.968C8.02078 61.836 8.80678 61.62 9.41878 61.32C10.0308 61.02 10.3908 60.636 10.4988 60.168C10.5228 60.048 10.5348 59.964 10.5348 59.916C10.5348 59.712 10.4508 59.562 10.2828 59.466C10.1148 59.358 9.91678 59.304 9.68878 59.304C9.11278 59.304 8.63278 59.562 8.24878 60.078C7.86478 60.594 7.60678 61.26 7.47478 62.076C7.40278 62.448 7.36678 62.802 7.36678 63.138C7.36678 63.882 7.52878 64.482 7.85278 64.938C8.18878 65.382 8.66278 65.604 9.27478 65.604C9.95878 65.604 10.5648 65.406 11.0928 65.01H11.1288C11.1648 65.01 11.1948 65.028 11.2188 65.064C11.2548 65.1 11.2548 65.136 11.2188 65.172C10.3788 65.868 9.50278 66.216 8.59078 66.216ZM14.7967 66.234C14.0167 66.234 13.4347 65.97 13.0507 65.442C12.6787 64.902 12.4927 64.236 12.4927 63.444C12.4927 63.06 12.5287 62.7 12.6007 62.364C12.7447 61.644 13.0207 61.014 13.4287 60.474C13.8367 59.934 14.3107 59.526 14.8507 59.25C15.3907 58.962 15.9247 58.818 16.4527 58.818C16.8727 58.818 17.2327 58.914 17.5327 59.106C17.8447 59.286 18.0007 59.52 18.0007 59.808C18.0007 59.988 17.9467 60.144 17.8387 60.276C17.7427 60.396 17.5987 60.456 17.4067 60.456C17.0947 60.456 16.8787 60.264 16.7587 59.88C16.7107 59.712 16.6087 59.562 16.4527 59.43C16.3087 59.286 16.0987 59.214 15.8227 59.214C15.2587 59.214 14.7967 59.454 14.4367 59.934C14.0767 60.414 13.8307 61.038 13.6987 61.806C13.6147 62.286 13.5727 62.682 13.5727 62.994C13.5727 63.762 13.7407 64.392 14.0767 64.884C14.4127 65.364 14.9047 65.604 15.5527 65.604C16.1647 65.604 16.8007 65.334 17.4607 64.794L17.4967 64.776C17.5327 64.776 17.5627 64.8 17.5867 64.848C17.6227 64.896 17.6287 64.932 17.6047 64.956C16.6447 65.808 15.7087 66.234 14.7967 66.234ZM20.9478 66.252C20.2398 66.252 19.6818 66 19.2738 65.496C18.8778 64.992 18.6798 64.332 18.6798 63.516C18.6798 63.144 18.7098 62.814 18.7698 62.526C18.9018 61.83 19.1538 61.2 19.5258 60.636C19.8978 60.072 20.3478 59.628 20.8758 59.304C21.4038 58.98 21.9618 58.818 22.5498 58.818C23.2938 58.818 23.8698 59.07 24.2778 59.574C24.6858 60.066 24.8898 60.708 24.8898 61.5C24.8898 61.836 24.8538 62.178 24.7818 62.526C24.6378 63.258 24.3678 63.912 23.9718 64.488C23.5758 65.052 23.1078 65.49 22.5678 65.802C22.0398 66.102 21.4998 66.252 20.9478 66.252ZM21.5778 65.802C22.0818 65.802 22.5378 65.58 22.9458 65.136C23.3538 64.692 23.6298 64.086 23.7738 63.318C23.8338 63.03 23.8638 62.682 23.8638 62.274C23.8638 61.446 23.7018 60.738 23.3778 60.15C23.0658 59.55 22.6158 59.25 22.0278 59.25C21.5118 59.25 21.0438 59.478 20.6238 59.934C20.2158 60.39 19.9338 60.996 19.7778 61.752C19.7058 62.088 19.6698 62.448 19.6698 62.832C19.6698 63.648 19.8378 64.35 20.1738 64.938C20.5098 65.514 20.9778 65.802 21.5778 65.802ZM35.1937 66.162C34.9777 66.162 34.8217 66.102 34.7257 65.982C34.6297 65.85 34.5817 65.646 34.5817 65.37C34.5817 65.118 34.6177 64.794 34.6897 64.398L35.2117 61.536C35.2717 61.224 35.3017 60.9 35.3017 60.564C35.3017 60.216 35.2417 59.958 35.1217 59.79C35.0137 59.61 34.8397 59.52 34.5997 59.52C34.2277 59.52 33.8317 59.772 33.4117 60.276C33.0037 60.78 32.6137 61.512 32.2417 62.472C31.8697 63.432 31.5697 64.566 31.3417 65.874L31.1437 65.856C31.3717 64.464 31.6957 63.234 32.1157 62.166C32.5357 61.098 33.0097 60.276 33.5377 59.7C34.0657 59.112 34.6177 58.818 35.1937 58.818C35.5537 58.818 35.8237 58.926 36.0037 59.142C36.1837 59.346 36.2737 59.682 36.2737 60.15C36.2737 60.426 36.2377 60.774 36.1657 61.194L35.5897 64.398C35.5537 64.578 35.5357 64.734 35.5357 64.866C35.5357 65.058 35.5657 65.202 35.6257 65.298C35.6857 65.394 35.7697 65.442 35.8777 65.442C36.1417 65.442 36.5377 65.166 37.0657 64.614C37.0897 64.59 37.1137 64.578 37.1377 64.578C37.1737 64.578 37.2037 64.602 37.2277 64.65C37.2517 64.686 37.2457 64.722 37.2097 64.758C36.8017 65.238 36.4357 65.592 36.1117 65.82C35.7997 66.048 35.4937 66.162 35.1937 66.162ZM26.8237 66.144C26.6557 66.144 26.5417 66.132 26.4817 66.108C26.4337 66.096 26.4097 66.072 26.4097 66.036C26.4097 66.024 26.4577 65.778 26.5537 65.298L26.6617 64.758L27.4177 60.654C27.4537 60.474 27.4717 60.312 27.4717 60.168C27.4717 59.784 27.3517 59.592 27.1117 59.592C26.9677 59.592 26.7817 59.664 26.5537 59.808C26.3377 59.952 26.1097 60.156 25.8697 60.42C25.8577 60.432 25.8397 60.438 25.8157 60.438C25.7797 60.438 25.7437 60.42 25.7077 60.384C25.6837 60.336 25.6897 60.3 25.7257 60.276C26.1337 59.808 26.5057 59.46 26.8417 59.232C27.1897 59.004 27.5197 58.89 27.8317 58.89C28.0357 58.89 28.1857 58.956 28.2817 59.088C28.3777 59.208 28.4257 59.406 28.4257 59.682C28.4257 59.994 28.3957 60.306 28.3357 60.618L27.3997 65.874C27.3397 66.054 27.1477 66.144 26.8237 66.144ZM30.7837 66.144C30.6157 66.144 30.5017 66.132 30.4417 66.108C30.3937 66.096 30.3697 66.072 30.3697 66.036L30.4597 65.622L30.6397 64.668L31.2337 61.536C31.2817 61.212 31.3057 60.906 31.3057 60.618C31.3057 59.886 31.0837 59.52 30.6397 59.52C30.2677 59.52 29.8717 59.778 29.4517 60.294C29.0437 60.798 28.6537 61.53 28.2817 62.49C27.9217 63.45 27.6277 64.578 27.3997 65.874L27.1657 65.856C27.4057 64.464 27.7297 63.24 28.1377 62.184C28.5577 61.116 29.0317 60.288 29.5597 59.7C30.0997 59.112 30.6577 58.818 31.2337 58.818C31.5937 58.818 31.8577 58.926 32.0257 59.142C32.2057 59.346 32.2957 59.676 32.2957 60.132C32.2957 60.42 32.2597 60.774 32.1877 61.194L31.3417 65.874C31.3297 65.958 31.2757 66.024 31.1797 66.072C31.0837 66.12 30.9517 66.144 30.7837 66.144ZM47.3577 66.162C47.1417 66.162 46.9857 66.102 46.8897 65.982C46.7937 65.85 46.7457 65.646 46.7457 65.37C46.7457 65.118 46.7817 64.794 46.8537 64.398L47.3757 61.536C47.4357 61.224 47.4657 60.9 47.4657 60.564C47.4657 60.216 47.4057 59.958 47.2857 59.79C47.1777 59.61 47.0037 59.52 46.7637 59.52C46.3917 59.52 45.9957 59.772 45.5757 60.276C45.1677 60.78 44.7777 61.512 44.4057 62.472C44.0337 63.432 43.7337 64.566 43.5057 65.874L43.3077 65.856C43.5357 64.464 43.8597 63.234 44.2797 62.166C44.6997 61.098 45.1737 60.276 45.7017 59.7C46.2297 59.112 46.7817 58.818 47.3577 58.818C47.7177 58.818 47.9877 58.926 48.1677 59.142C48.3477 59.346 48.4377 59.682 48.4377 60.15C48.4377 60.426 48.4017 60.774 48.3297 61.194L47.7537 64.398C47.7177 64.578 47.6997 64.734 47.6997 64.866C47.6997 65.058 47.7297 65.202 47.7897 65.298C47.8497 65.394 47.9337 65.442 48.0417 65.442C48.3057 65.442 48.7017 65.166 49.2297 64.614C49.2537 64.59 49.2777 64.578 49.3017 64.578C49.3377 64.578 49.3677 64.602 49.3917 64.65C49.4157 64.686 49.4097 64.722 49.3737 64.758C48.9657 65.238 48.5997 65.592 48.2757 65.82C47.9637 66.048 47.6577 66.162 47.3577 66.162ZM38.9877 66.144C38.8197 66.144 38.7057 66.132 38.6457 66.108C38.5977 66.096 38.5737 66.072 38.5737 66.036C38.5737 66.024 38.6217 65.778 38.7177 65.298L38.8257 64.758L39.5817 60.654C39.6177 60.474 39.6357 60.312 39.6357 60.168C39.6357 59.784 39.5157 59.592 39.2757 59.592C39.1317 59.592 38.9457 59.664 38.7177 59.808C38.5017 59.952 38.2737 60.156 38.0337 60.42C38.0217 60.432 38.0037 60.438 37.9797 60.438C37.9437 60.438 37.9077 60.42 37.8717 60.384C37.8477 60.336 37.8537 60.3 37.8897 60.276C38.2977 59.808 38.6697 59.46 39.0057 59.232C39.3537 59.004 39.6837 58.89 39.9957 58.89C40.1997 58.89 40.3497 58.956 40.4457 59.088C40.5417 59.208 40.5897 59.406 40.5897 59.682C40.5897 59.994 40.5597 60.306 40.4997 60.618L39.5637 65.874C39.5037 66.054 39.3117 66.144 38.9877 66.144ZM42.9477 66.144C42.7797 66.144 42.6657 66.132 42.6057 66.108C42.5577 66.096 42.5337 66.072 42.5337 66.036L42.6237 65.622L42.8037 64.668L43.3977 61.536C43.4457 61.212 43.4697 60.906 43.4697 60.618C43.4697 59.886 43.2477 59.52 42.8037 59.52C42.4317 59.52 42.0357 59.778 41.6157 60.294C41.2077 60.798 40.8177 61.53 40.4457 62.49C40.0857 63.45 39.7917 64.578 39.5637 65.874L39.3297 65.856C39.5697 64.464 39.8937 63.24 40.3017 62.184C40.7217 61.116 41.1957 60.288 41.7237 59.7C42.2637 59.112 42.8217 58.818 43.3977 58.818C43.7577 58.818 44.0217 58.926 44.1897 59.142C44.3697 59.346 44.4597 59.676 44.4597 60.132C44.4597 60.42 44.4237 60.774 44.3517 61.194L43.5057 65.874C43.4937 65.958 43.4397 66.024 43.3437 66.072C43.2477 66.12 43.1157 66.144 42.9477 66.144ZM52.5713 66.216C51.8153 66.216 51.2393 65.976 50.8433 65.496C50.4593 65.004 50.2673 64.374 50.2673 63.606C50.2673 63.342 50.2973 63.03 50.3573 62.67C50.4653 62.058 50.7173 61.458 51.1133 60.87C51.5093 60.27 52.0013 59.778 52.5893 59.394C53.1893 59.01 53.8133 58.818 54.4613 58.818C54.8933 58.818 55.2173 58.908 55.4333 59.088C55.6613 59.256 55.7453 59.49 55.6853 59.79C55.6133 60.162 55.3493 60.522 54.8933 60.87C54.4493 61.206 53.8793 61.494 53.1833 61.734C52.4993 61.962 51.7733 62.118 51.0053 62.202L51.0413 61.968C52.0013 61.836 52.7873 61.62 53.3993 61.32C54.0113 61.02 54.3713 60.636 54.4793 60.168C54.5033 60.048 54.5153 59.964 54.5153 59.916C54.5153 59.712 54.4313 59.562 54.2633 59.466C54.0953 59.358 53.8973 59.304 53.6693 59.304C53.0933 59.304 52.6133 59.562 52.2293 60.078C51.8453 60.594 51.5873 61.26 51.4553 62.076C51.3833 62.448 51.3473 62.802 51.3473 63.138C51.3473 63.882 51.5093 64.482 51.8333 64.938C52.1693 65.382 52.6433 65.604 53.2553 65.604C53.9393 65.604 54.5452 65.406 55.0732 65.01H55.1093C55.1453 65.01 55.1753 65.028 55.1993 65.064C55.2353 65.1 55.2353 65.136 55.1993 65.172C54.3593 65.868 53.4833 66.216 52.5713 66.216ZM62.0172 66.162C61.8012 66.162 61.6392 66.102 61.5312 65.982C61.4352 65.85 61.3872 65.64 61.3872 65.352C61.3872 65.112 61.4232 64.794 61.4952 64.398L62.0172 61.536C62.0892 61.152 62.1252 60.828 62.1252 60.564C62.1252 59.868 61.8672 59.52 61.3512 59.52C60.9552 59.52 60.5412 59.772 60.1092 60.276C59.6892 60.78 59.2932 61.512 58.9212 62.472C58.5492 63.432 58.2432 64.566 58.0032 65.874L57.7872 65.856C58.0272 64.464 58.3572 63.24 58.7772 62.184C59.2092 61.116 59.6952 60.288 60.2352 59.7C60.7872 59.112 61.3572 58.818 61.9452 58.818C62.3412 58.818 62.6352 58.926 62.8272 59.142C63.0192 59.358 63.1152 59.694 63.1152 60.15C63.1152 60.366 63.0732 60.714 62.9892 61.194L62.3952 64.398C62.3592 64.578 62.3412 64.734 62.3412 64.866C62.3412 65.25 62.4612 65.442 62.7012 65.442C62.9652 65.442 63.3612 65.166 63.8892 64.614C63.9132 64.59 63.9312 64.578 63.9432 64.578C63.9792 64.578 64.0092 64.602 64.0332 64.65C64.0692 64.686 64.0692 64.722 64.0332 64.758C63.6252 65.238 63.2592 65.592 62.9352 65.82C62.6232 66.048 62.3172 66.162 62.0172 66.162ZM57.4272 66.144C57.2592 66.144 57.1452 66.132 57.0852 66.108C57.0372 66.096 57.0132 66.072 57.0132 66.036L57.0852 65.622C57.1572 65.334 57.2232 65.016 57.2832 64.668L58.0212 60.654C58.0572 60.474 58.0752 60.312 58.0752 60.168C58.0752 59.784 57.9552 59.592 57.7152 59.592C57.5712 59.592 57.3852 59.664 57.1572 59.808C56.9412 59.952 56.7132 60.156 56.4732 60.42C56.4612 60.432 56.4432 60.438 56.4192 60.438C56.3832 60.438 56.3472 60.42 56.3112 60.384C56.2872 60.336 56.2932 60.3 56.3292 60.276C56.7372 59.808 57.1092 59.46 57.4452 59.232C57.7932 59.004 58.1232 58.89 58.4352 58.89C58.6392 58.89 58.7892 58.956 58.8852 59.088C58.9812 59.208 59.0292 59.406 59.0292 59.682C59.0292 59.994 58.9992 60.306 58.9392 60.618L58.0032 65.874C57.9912 65.958 57.9312 66.024 57.8232 66.072C57.7272 66.12 57.5952 66.144 57.4272 66.144ZM66.2084 66.234C65.7764 66.234 65.4224 66.096 65.1464 65.82C64.8704 65.532 64.7324 65.082 64.7324 64.47C64.7324 64.338 64.7564 64.092 64.8044 63.732C64.9604 62.868 65.2844 62.058 65.7764 61.302C66.2804 60.546 66.8744 59.946 67.5584 59.502C68.2544 59.046 68.9444 58.818 69.6284 58.818C70.0004 58.818 70.3184 58.92 70.5824 59.124C70.8584 59.316 71.0144 59.616 71.0504 60.024L70.2944 61.572C69.7184 63 69.0764 64.134 68.3684 64.974C67.6724 65.814 66.9524 66.234 66.2084 66.234ZM66.7844 65.37C67.3244 65.37 67.8524 65.076 68.3684 64.488C68.8964 63.888 69.3284 63.198 69.6644 62.418C70.0004 61.638 70.1684 61.032 70.1684 60.6C70.1684 60.228 70.0604 59.946 69.8444 59.754C69.6404 59.55 69.3524 59.448 68.9804 59.448C68.2004 59.472 67.5224 59.79 66.9464 60.402C66.3704 61.014 65.9864 61.884 65.7944 63.012C65.7464 63.288 65.7224 63.564 65.7224 63.84C65.7224 64.344 65.8184 64.728 66.0104 64.992C66.2024 65.244 66.4604 65.37 66.7844 65.37ZM70.0064 66.162C69.5864 66.162 69.3764 65.898 69.3764 65.37C69.3764 65.178 69.4184 64.854 69.5024 64.398L71.3024 54.858C71.3264 54.69 71.3384 54.576 71.3384 54.516C71.3384 54.18 71.2004 54.012 70.9244 54.012C70.7324 54.012 70.4384 54.102 70.0424 54.282H70.0064C69.9704 54.282 69.9404 54.252 69.9164 54.192C69.9044 54.132 69.9224 54.096 69.9704 54.084L72.3104 52.95H72.3464C72.3824 52.95 72.4184 52.968 72.4544 53.004C72.4904 53.04 72.5024 53.07 72.4904 53.094L70.4024 64.398C70.3664 64.59 70.3484 64.752 70.3484 64.884C70.3484 65.256 70.4684 65.442 70.7084 65.442C70.9484 65.442 71.3444 65.166 71.8964 64.614C71.9204 64.59 71.9384 64.578 71.9504 64.578C71.9864 64.578 72.0164 64.602 72.0404 64.65C72.0764 64.686 72.0764 64.722 72.0404 64.758C71.6084 65.238 71.2364 65.592 70.9244 65.82C70.6124 66.048 70.3064 66.162 70.0064 66.162ZM75.1064 66.216C74.3504 66.216 73.7744 65.976 73.3784 65.496C72.9944 65.004 72.8024 64.374 72.8024 63.606C72.8024 63.342 72.8324 63.03 72.8924 62.67C73.0004 62.058 73.2524 61.458 73.6484 60.87C74.0444 60.27 74.5364 59.778 75.1244 59.394C75.7244 59.01 76.3484 58.818 76.9964 58.818C77.4284 58.818 77.7524 58.908 77.9684 59.088C78.1964 59.256 78.2804 59.49 78.2204 59.79C78.1484 60.162 77.8844 60.522 77.4284 60.87C76.9844 61.206 76.4144 61.494 75.7184 61.734C75.0344 61.962 74.3084 62.118 73.5404 62.202L73.5764 61.968C74.5364 61.836 75.3224 61.62 75.9344 61.32C76.5464 61.02 76.9064 60.636 77.0144 60.168C77.0384 60.048 77.0504 59.964 77.0504 59.916C77.0504 59.712 76.9664 59.562 76.7984 59.466C76.6304 59.358 76.4324 59.304 76.2044 59.304C75.6284 59.304 75.1484 59.562 74.7644 60.078C74.3804 60.594 74.1224 61.26 73.9904 62.076C73.9184 62.448 73.8824 62.802 73.8824 63.138C73.8824 63.882 74.0444 64.482 74.3684 64.938C74.7044 65.382 75.1784 65.604 75.7904 65.604C76.4744 65.604 77.0804 65.406 77.6084 65.01H77.6444C77.6804 65.01 77.7104 65.028 77.7344 65.064C77.7704 65.1 77.7704 65.136 77.7344 65.172C76.8944 65.868 76.0184 66.216 75.1064 66.216ZM80.2709 66.234C79.8389 66.234 79.4849 66.096 79.2089 65.82C78.9329 65.532 78.7949 65.082 78.7949 64.47C78.7949 64.338 78.8189 64.092 78.8669 63.732C79.0229 62.868 79.3469 62.058 79.8389 61.302C80.3429 60.546 80.9369 59.946 81.6209 59.502C82.3169 59.046 83.0069 58.818 83.6909 58.818C84.0629 58.818 84.3809 58.92 84.6449 59.124C84.9209 59.316 85.0769 59.616 85.1129 60.024L84.3569 61.572C83.7809 63 83.1389 64.134 82.4309 64.974C81.7349 65.814 81.0149 66.234 80.2709 66.234ZM80.8469 65.37C81.3869 65.37 81.9149 65.076 82.4309 64.488C82.9589 63.888 83.3909 63.198 83.7269 62.418C84.0629 61.638 84.2309 61.032 84.2309 60.6C84.2309 60.228 84.1229 59.946 83.9069 59.754C83.7029 59.55 83.4149 59.448 83.0429 59.448C82.2629 59.472 81.5849 59.79 81.0089 60.402C80.4329 61.014 80.0489 61.884 79.8569 63.012C79.8089 63.288 79.7849 63.564 79.7849 63.84C79.7849 64.344 79.8809 64.728 80.0729 64.992C80.2649 65.244 80.5229 65.37 80.8469 65.37ZM84.0689 66.162C83.6489 66.162 83.4389 65.898 83.4389 65.37C83.4389 65.178 83.4809 64.854 83.5649 64.398L85.3649 54.858C85.3889 54.69 85.4009 54.576 85.4009 54.516C85.4009 54.18 85.2629 54.012 84.9869 54.012C84.7949 54.012 84.5009 54.102 84.1049 54.282H84.0689C84.0329 54.282 84.0029 54.252 83.9789 54.192C83.9669 54.132 83.9849 54.096 84.0329 54.084L86.3729 52.95H86.4089C86.4449 52.95 86.4809 52.968 86.5169 53.004C86.5529 53.04 86.5649 53.07 86.5529 53.094L84.4649 64.398C84.4289 64.59 84.4109 64.752 84.4109 64.884C84.4109 65.256 84.5309 65.442 84.7709 65.442C85.0109 65.442 85.4069 65.166 85.9589 64.614C85.9829 64.59 86.0009 64.578 86.0129 64.578C86.0489 64.578 86.0789 64.602 86.1029 64.65C86.1389 64.686 86.1389 64.722 86.1029 64.758C85.6709 65.238 85.2989 65.592 84.9869 65.82C84.6749 66.048 84.3689 66.162 84.0689 66.162ZM93.2437 66.234C92.7037 66.234 92.2717 66.12 91.9477 65.892C91.6237 65.652 91.4617 65.328 91.4617 64.92C91.4617 64.86 91.4737 64.758 91.4977 64.614L93.3337 54.858C93.3577 54.666 93.3697 54.546 93.3697 54.498C93.3697 54.174 93.2317 54.012 92.9557 54.012C92.7637 54.012 92.4757 54.102 92.0917 54.282H92.0557C92.0077 54.282 91.9777 54.252 91.9657 54.192C91.9537 54.132 91.9717 54.096 92.0197 54.084L94.3237 52.95H94.3597C94.4077 52.95 94.4497 52.968 94.4857 53.004C94.5337 53.04 94.5517 53.07 94.5397 53.094L92.4877 64.272C92.4757 64.332 92.4697 64.416 92.4697 64.524C92.4697 64.896 92.6077 65.196 92.8837 65.424C93.1597 65.652 93.5257 65.766 93.9817 65.766C94.3777 65.766 94.7677 65.622 95.1517 65.334C95.5477 65.034 95.8957 64.602 96.1957 64.038C96.4957 63.474 96.7177 62.808 96.8617 62.04C96.9337 61.692 96.9697 61.368 96.9697 61.068C96.9697 60.624 96.8797 60.276 96.6997 60.024C96.5317 59.76 96.2617 59.628 95.8897 59.628C95.3977 59.628 94.9237 59.826 94.4677 60.222C94.0117 60.606 93.6097 61.152 93.2617 61.86C92.9137 62.556 92.6557 63.36 92.4877 64.272L92.3797 63.912C92.5237 63.012 92.8117 62.172 93.2437 61.392C93.6757 60.6 94.1917 59.976 94.7917 59.52C95.3917 59.052 96.0037 58.818 96.6277 58.818C97.0837 58.818 97.4437 58.992 97.7077 59.34C97.9717 59.676 98.1037 60.132 98.1037 60.708C98.1037 60.984 98.0797 61.242 98.0317 61.482C97.8397 62.454 97.4737 63.3 96.9337 64.02C96.3937 64.74 95.7877 65.292 95.1157 65.676C94.4437 66.048 93.8197 66.234 93.2437 66.234ZM98.0783 71.058C97.8623 71.058 97.6883 71.01 97.5563 70.914C97.4123 70.818 97.3403 70.662 97.3403 70.446C97.3403 70.242 97.4063 70.086 97.5383 69.978C97.6703 69.882 97.8503 69.834 98.0783 69.834C98.5823 69.834 98.9963 69.81 99.3203 69.762C99.6443 69.714 99.9443 69.588 100.22 69.384C100.628 69.096 101.162 68.484 101.822 67.548C102.494 66.612 103.112 65.628 103.676 64.596C104.24 63.552 104.588 62.754 104.72 62.202C104.78 61.974 104.81 61.722 104.81 61.446C104.81 61.038 104.714 60.558 104.522 60.006C104.426 59.778 104.378 59.598 104.378 59.466C104.378 59.298 104.438 59.16 104.558 59.052C104.678 58.932 104.834 58.872 105.026 58.872C105.482 58.872 105.71 59.202 105.71 59.862C105.71 60.846 105.242 62.25 104.306 64.074C103.382 65.886 102.314 67.5 101.102 68.916C99.8903 70.344 98.8823 71.058 98.0783 71.058ZM101.678 68.034C101.69 67.758 101.696 67.362 101.696 66.846C101.696 64.578 101.51 62.82 101.138 61.572C100.778 60.312 100.28 59.682 99.6443 59.682C99.2723 59.682 98.9723 59.904 98.7443 60.348C98.7323 60.384 98.6963 60.402 98.6363 60.402C98.5523 60.402 98.5163 60.366 98.5283 60.294C98.9843 59.358 99.5423 58.89 100.202 58.89C100.706 58.89 101.138 59.178 101.498 59.754C101.858 60.318 102.134 61.098 102.326 62.094C102.518 63.078 102.614 64.182 102.614 65.406C102.614 65.67 102.602 66.078 102.578 66.63L101.678 68.034ZM113.374 66.252C112.666 66.252 112.108 66 111.7 65.496C111.304 64.992 111.106 64.332 111.106 63.516C111.106 63.144 111.136 62.814 111.196 62.526C111.328 61.83 111.58 61.2 111.952 60.636C112.324 60.072 112.774 59.628 113.302 59.304C113.83 58.98 114.388 58.818 114.976 58.818C115.72 58.818 116.296 59.07 116.704 59.574C117.112 60.066 117.316 60.708 117.316 61.5C117.316 61.836 117.28 62.178 117.208 62.526C117.064 63.258 116.794 63.912 116.398 64.488C116.002 65.052 115.534 65.49 114.994 65.802C114.466 66.102 113.926 66.252 113.374 66.252ZM114.004 65.802C114.508 65.802 114.964 65.58 115.372 65.136C115.78 64.692 116.056 64.086 116.2 63.318C116.26 63.03 116.29 62.682 116.29 62.274C116.29 61.446 116.128 60.738 115.804 60.15C115.492 59.55 115.042 59.25 114.454 59.25C113.938 59.25 113.47 59.478 113.05 59.934C112.642 60.39 112.36 60.996 112.204 61.752C112.132 62.088 112.096 62.448 112.096 62.832C112.096 63.648 112.264 64.35 112.6 64.938C112.936 65.514 113.404 65.802 114.004 65.802ZM120.893 66.234C120.377 66.234 119.975 66.03 119.687 65.622C119.399 65.214 119.255 64.716 119.255 64.128C119.255 63.732 119.333 63.312 119.489 62.868C119.657 62.424 119.903 61.872 120.227 61.212C120.275 61.104 120.329 60.984 120.389 60.852C120.461 60.72 120.533 60.576 120.605 60.42C120.653 60.324 120.677 60.228 120.677 60.132C120.677 60.012 120.593 59.952 120.425 59.952H119.507C119.195 59.952 118.961 59.976 118.805 60.024C118.649 60.072 118.523 60.162 118.427 60.294C118.343 60.414 118.253 60.618 118.156 60.906C118.145 60.942 118.115 60.96 118.067 60.96C118.031 60.96 118.001 60.948 117.977 60.924C117.953 60.9 117.947 60.864 117.959 60.816C118.139 60.264 118.295 59.874 118.427 59.646C118.559 59.406 118.715 59.244 118.895 59.16C119.087 59.076 119.369 59.034 119.741 59.034H121.343C121.475 59.034 121.541 59.058 121.541 59.106C121.541 59.13 121.523 59.178 121.487 59.25C120.767 60.894 120.341 62.202 120.208 63.174C120.185 63.306 120.173 63.492 120.173 63.732C120.173 64.236 120.281 64.632 120.497 64.92C120.725 65.208 121.025 65.352 121.397 65.352C121.937 65.352 122.459 65.088 122.963 64.56C123.479 64.032 123.845 63.342 124.061 62.49C124.169 62.07 124.223 61.722 124.223 61.446C124.223 61.098 124.169 60.834 124.061 60.654C123.965 60.462 123.839 60.3 123.683 60.168C123.551 60.048 123.443 59.94 123.359 59.844C123.287 59.748 123.251 59.628 123.251 59.484C123.251 59.28 123.323 59.13 123.467 59.034C123.611 58.926 123.773 58.872 123.953 58.872C124.229 58.872 124.433 59.028 124.565 59.34C124.697 59.652 124.763 60.06 124.763 60.564C124.763 60.948 124.739 61.29 124.691 61.59C124.559 62.49 124.283 63.294 123.863 64.002C123.455 64.71 122.981 65.262 122.441 65.658C121.901 66.042 121.385 66.234 120.893 66.234ZM128.122 66.216C127.366 66.216 126.79 65.976 126.394 65.496C126.01 65.004 125.818 64.374 125.818 63.606C125.818 63.342 125.848 63.03 125.908 62.67C126.016 62.058 126.268 61.458 126.664 60.87C127.06 60.27 127.552 59.778 128.14 59.394C128.74 59.01 129.364 58.818 130.012 58.818C130.444 58.818 130.768 58.908 130.984 59.088C131.212 59.256 131.296 59.49 131.236 59.79C131.164 60.162 130.9 60.522 130.444 60.87C130 61.206 129.43 61.494 128.734 61.734C128.05 61.962 127.324 62.118 126.556 62.202L126.592 61.968C127.552 61.836 128.338 61.62 128.95 61.32C129.562 61.02 129.922 60.636 130.03 60.168C130.054 60.048 130.066 59.964 130.066 59.916C130.066 59.712 129.982 59.562 129.814 59.466C129.646 59.358 129.448 59.304 129.22 59.304C128.644 59.304 128.164 59.562 127.78 60.078C127.396 60.594 127.138 61.26 127.006 62.076C126.934 62.448 126.898 62.802 126.898 63.138C126.898 63.882 127.06 64.482 127.384 64.938C127.72 65.382 128.194 65.604 128.806 65.604C129.49 65.604 130.096 65.406 130.624 65.01H130.66C130.696 65.01 130.726 65.028 130.75 65.064C130.786 65.1 130.786 65.136 130.75 65.172C129.91 65.868 129.034 66.216 128.122 66.216ZM133.32 65.856C133.5 64.896 133.776 63.87 134.148 62.778C134.52 61.686 134.934 60.768 135.39 60.024C135.846 59.268 136.284 58.89 136.704 58.89C136.932 58.89 137.154 58.974 137.37 59.142C137.586 59.31 137.694 59.508 137.694 59.736C137.694 59.916 137.634 60.066 137.514 60.186C137.406 60.294 137.268 60.348 137.1 60.348C136.968 60.348 136.86 60.324 136.776 60.276C136.704 60.216 136.626 60.126 136.542 60.006C136.494 59.946 136.44 59.892 136.38 59.844C136.32 59.784 136.254 59.754 136.182 59.754C135.918 59.754 135.6 60.102 135.228 60.798C134.868 61.494 134.526 62.328 134.202 63.3C133.878 64.272 133.644 65.13 133.5 65.874L133.32 65.856ZM132.924 66.144C132.768 66.144 132.66 66.132 132.6 66.108C132.552 66.096 132.528 66.072 132.528 66.036L132.618 65.622L132.798 64.668L133.392 61.338C133.464 60.942 133.5 60.63 133.5 60.402C133.5 59.862 133.356 59.592 133.068 59.592C132.804 59.592 132.438 59.814 131.97 60.258L131.934 60.276C131.898 60.276 131.868 60.258 131.844 60.222C131.82 60.174 131.814 60.138 131.826 60.114C132.198 59.706 132.54 59.4 132.852 59.196C133.164 58.992 133.47 58.89 133.77 58.89C134.01 58.89 134.184 58.968 134.292 59.124C134.412 59.28 134.472 59.544 134.472 59.916C134.472 60.24 134.418 60.702 134.31 61.302L133.5 65.874C133.464 66.054 133.272 66.144 132.924 66.144ZM150.915 60.876C151.727 61.254 152.427 61.996 152.427 63.27C152.427 64.81 151.083 66.182 148.941 66.182C146.743 66.182 145.483 64.782 145.357 63.186H147.359C147.415 63.69 147.947 64.334 148.927 64.334C149.893 64.334 150.425 63.802 150.425 63.074C150.425 62.332 149.893 61.828 148.857 61.828H148.073V60.176H148.787C149.711 60.176 150.201 59.686 150.201 59.028C150.201 58.37 149.697 57.866 148.899 57.866C148.017 57.866 147.527 58.398 147.443 58.93H145.441C145.553 57.404 146.897 56.018 148.871 56.018C150.887 56.018 152.203 57.362 152.203 58.832C152.203 59.728 151.685 60.442 150.915 60.876ZM157.211 66.182C155.111 66.182 153.333 64.446 153.333 61.1C153.333 57.754 155.111 56.018 157.211 56.018C159.311 56.018 161.089 57.754 161.089 61.1C161.089 64.446 159.311 66.182 157.211 66.182ZM157.211 64.25C158.177 64.25 159.087 63.354 159.087 61.1C159.087 58.846 158.177 57.95 157.211 57.95C156.245 57.95 155.335 58.846 155.335 61.1C155.335 63.354 156.245 64.25 157.211 64.25ZM165.893 66.182C163.793 66.182 162.015 64.446 162.015 61.1C162.015 57.754 163.793 56.018 165.893 56.018C167.993 56.018 169.771 57.754 169.771 61.1C169.771 64.446 167.993 66.182 165.893 66.182ZM165.893 64.25C166.859 64.25 167.769 63.354 167.769 61.1C167.769 58.846 166.859 57.95 165.893 57.95C164.927 57.95 164.017 58.846 164.017 61.1C164.017 63.354 164.927 64.25 165.893 64.25ZM174.574 66.182C172.474 66.182 170.696 64.446 170.696 61.1C170.696 57.754 172.474 56.018 174.574 56.018C176.674 56.018 178.452 57.754 178.452 61.1C178.452 64.446 176.674 66.182 174.574 66.182ZM174.574 64.25C175.54 64.25 176.45 63.354 176.45 61.1C176.45 58.846 175.54 57.95 174.574 57.95C173.608 57.95 172.698 58.846 172.698 61.1C172.698 63.354 173.608 64.25 174.574 64.25ZM189.156 60.022V56.2H191.158V66H189.156V61.954H185.152V66H183.15V56.2H185.152V60.022H189.156ZM195.119 61.926V64.096H199.963V66H193.117V56.2H199.823V58.104H195.119V60.078H199.291V61.926H195.119ZM209.647 66H207.547L206.833 63.984H203.137L202.423 66H200.393L204.047 56.2H206.007L209.647 66ZM206.175 62.136L204.985 58.692L203.795 62.136H206.175ZM217.1 66H210.548V56.2H212.55V64.068H217.1V66ZM221.157 66H219.155V58.132H216.313V56.2H223.999V58.132H221.157V66ZM231.183 60.022V56.2H233.185V66H231.183V61.954H227.179V66H225.177V56.2H227.179V60.022H231.183ZM239.442 66.182C236.824 66.182 234.626 63.928 234.626 61.1C234.626 58.272 236.824 56.018 239.442 56.018C241.906 56.018 243.446 57.88 243.88 59.686H241.794C241.57 58.86 240.772 57.95 239.442 57.95C237.93 57.95 236.628 59.28 236.628 61.1C236.628 62.92 237.93 64.25 239.442 64.25C240.772 64.25 241.57 63.34 241.864 62.528H243.95C243.53 64.306 241.962 66.182 239.442 66.182ZM253.233 66H251.132L250.419 63.984H246.723L246.009 66H243.978L247.633 56.2H249.593L253.233 66ZM249.761 62.136L248.571 58.692L247.381 62.136H249.761ZM261.708 66H259.398L257.438 62.472H256.136V66H254.134V56.2H258.11C260.014 56.2 261.428 57.516 261.428 59.364C261.428 60.61 260.644 61.674 259.398 62.164L261.708 66ZM258.054 58.104H256.136V60.652H258.054C258.838 60.652 259.426 60.12 259.426 59.378C259.426 58.636 258.838 58.104 258.054 58.104ZM265.037 61.926V64.096H269.881V66H263.035V56.2H269.741V58.104H265.037V60.078H269.209V61.926H265.037ZM274.628 56.2H278.366C280.298 56.2 281.768 57.628 281.768 59.518C281.768 61.408 280.298 62.836 278.366 62.836H276.63V66H274.628V56.2ZM276.63 60.904H278.324C279.108 60.904 279.766 60.316 279.766 59.518C279.766 58.72 279.108 58.132 278.324 58.132H276.63V60.904ZM290.816 66H288.506L286.546 62.472H285.244V66H283.242V56.2H287.218C289.122 56.2 290.536 57.516 290.536 59.364C290.536 60.61 289.752 61.674 288.506 62.164L290.816 66ZM287.162 58.104H285.244V60.652H287.162C287.946 60.652 288.534 60.12 288.534 59.378C288.534 58.636 287.946 58.104 287.162 58.104ZM296.44 66.182C293.822 66.182 291.624 63.928 291.624 61.1C291.624 58.272 293.822 56.018 296.44 56.018C299.058 56.018 301.256 58.272 301.256 61.1C301.256 63.928 299.058 66.182 296.44 66.182ZM296.44 64.25C297.952 64.25 299.254 62.92 299.254 61.1C299.254 59.28 297.952 57.95 296.44 57.95C294.928 57.95 293.626 59.28 293.626 61.1C293.626 62.92 294.928 64.25 296.44 64.25ZM306.049 63.256L308.457 56.2H310.501L307.015 66H304.985L301.513 56.2H303.641L306.049 63.256ZM313.558 66H311.556V56.2H313.558V66ZM318.769 66H315.521V56.2H318.769C321.457 56.2 323.613 58.384 323.613 61.1C323.613 63.83 321.401 66 318.769 66ZM317.523 58.132V64.068H318.769C320.281 64.068 321.611 62.794 321.611 61.1C321.611 59.406 320.281 58.132 318.769 58.132H317.523ZM327.052 61.926V64.096H331.896V66H325.05V56.2H331.756V58.104H327.052V60.078H331.224V61.926H327.052ZM340.964 66H338.654L336.694 62.472H335.392V66H333.39V56.2H337.366C339.27 56.2 340.684 57.516 340.684 59.364C340.684 60.61 339.9 61.674 338.654 62.164L340.964 66ZM337.31 58.104H335.392V60.652H337.31C338.094 60.652 338.682 60.12 338.682 59.378C338.682 58.636 338.094 58.104 337.31 58.104ZM345.511 66.182C343.229 66.182 341.829 64.768 341.745 62.906H343.747C343.859 63.732 344.419 64.39 345.511 64.39C346.547 64.39 347.023 63.914 347.023 63.368C347.023 61.506 341.969 62.402 341.969 58.86C341.969 57.25 343.229 56.018 345.385 56.018C347.443 56.018 348.815 57.418 348.899 59.21H346.897C346.841 58.412 346.295 57.81 345.385 57.81C344.461 57.81 343.971 58.286 343.971 58.888C343.971 60.736 349.025 59.812 349.025 63.298C349.025 64.922 347.765 66.182 345.511 66.182Z" fill="#D54F2F"/>
</g>
<defs>
<clipPath id="clip0_3567_3556">
<rect width="350" height="72" fill="white"/>
</clipPath>
</defs>
</svg>
