<svg width="2135" height="2135" viewBox="-249 0 2135 2135" fill="none" xmlns="http://www.w3.org/2000/svg">
<path d="M623.958 1362.92H499.04V1944.01H623.958V1362.92Z" fill="#D54F2F"/>
<path d="M125.539 1831.54H433.795V1944.03H0V1162.2H125.539V1831.54Z" fill="#D54F2F"/>
<path d="M1637 1655.05C1637 1486.63 1505.24 1351.77 1343.66 1351.77C1182.07 1351.77 1050.32 1486.63 1050.32 1655.05C1050.32 1823.47 1193.26 1959.58 1364.79 1959.58C1454.9 1959.58 1536.32 1922.91 1592.25 1863.25L1533.21 1776.86C1494.68 1821.61 1436.88 1850.82 1371 1850.82C1271.57 1850.82 1188.29 1784.94 1167.16 1696.69H1633.89C1635.75 1682.4 1637 1669.34 1637 1655.05ZM1176.48 1597.25C1195.75 1515.22 1262.87 1456.18 1343.04 1456.18C1423.21 1456.18 1490.33 1515.22 1511.46 1597.25H1176.48Z" fill="#D54F2F"/>
<path d="M500.301 1270.33C466.741 1236.77 466.741 1182.08 500.301 1148.52C533.861 1114.96 588.551 1114.96 622.112 1148.52C655.672 1182.08 655.672 1236.77 622.112 1270.33C588.551 1303.89 533.861 1303.89 500.301 1270.33Z" fill="#D54F2F"/>
<path d="M944.032 1177.72C962.676 1162.81 991.264 1155.35 1029.17 1155.35C1043.47 1155.35 1060.25 1156.59 1078.89 1159.08V1053.43C1055.9 1046.59 1029.17 1042.86 998.101 1042.86C934.088 1042.86 883.748 1059.64 846.459 1093.2C809.17 1126.76 790.525 1177.72 790.525 1245.47V1362.93H707.868V1470.44H796.119V1921.02C796.119 1958.31 786.797 1984.41 767.531 1999.32C749.508 2013.62 723.405 2021.08 688.602 2021.7V2133.56C694.817 2133.56 701.032 2134.18 708.49 2134.18C772.502 2134.18 822.842 2117.41 860.131 2083.84C894.934 2052.15 912.957 2005.54 915.443 1944.01V1470.44H1052.79V1362.93H915.443V1256.03C915.443 1218.74 924.766 1192.64 944.032 1177.72Z" fill="#D54F2F"/>
<path d="M536.96 536.353C562.44 571.156 575.492 612.795 575.492 660.65C575.492 727.148 552.497 781.217 505.886 824.1C459.274 866.982 398.369 888.112 322.548 888.112H0.620361V106.287H261.022C331.249 106.287 387.804 125.553 430.686 164.085C473.569 202.617 495.32 252.957 495.32 314.484C495.32 376.011 472.947 424.486 428.822 461.154C475.433 476.069 511.479 500.929 536.96 535.732V536.353ZM123.674 216.29V426.972H248.592C287.124 426.972 316.955 417.029 338.085 397.763C359.216 378.497 369.159 352.394 369.159 320.077C369.159 287.76 358.594 262.279 338.085 243.635C316.955 224.99 287.124 215.668 248.592 215.668H123.674V216.29ZM412.663 745.171C436.901 723.419 448.709 694.21 448.709 656.921C448.709 619.632 436.901 590.422 412.663 568.049C388.425 545.675 354.865 535.11 311.362 535.11H123.674V778.11H311.362C354.865 778.11 388.425 767.545 412.663 745.793V745.171Z" fill="#D54F2F"/>
<path d="M679.318 0H803.615V888.098H679.318V0ZM1208.82 888.098H1059.67L807.344 561.199L1034.81 306.391H1188.93L954.635 562.442L1209.44 888.098H1208.82Z" fill="#D54F2F"/>
</svg>
