<svg width="16187" height="2816" viewBox="0 0 16187 2816" fill="none" xmlns="http://www.w3.org/2000/svg">
<g clip-path="url(#clip0_518_2)">
<path d="M13613.2 809.871H13295.1V2277.4H13613.2V809.871Z" fill="#D54F2F"/>
<path d="M1363.93 1355.75C1428.95 1443.59 1461.71 1548.2 1461.71 1670.08C1461.71 1837.86 1402.64 1975.53 1284.02 2083.1C1165.39 2190.68 1010.04 2244.46 817.465 2244.46H0L0.00034529 269.658H661.117C839.8 269.658 983.736 318.51 1092.93 416.214C1202.12 513.918 1257.21 640.734 1257.21 796.172C1257.21 951.61 1201.13 1073.5 1088.46 1167.25C1207.08 1205.25 1298.41 1267.91 1363.93 1355.75ZM313.188 547.472V1079.91H631.335C729.61 1079.91 805.549 1055.24 858.657 1006.39C911.765 957.534 938.57 892.396 938.57 810.487C938.57 728.572 911.765 664.42 858.657 617.544C805.549 570.668 729.61 546.982 631.335 546.982L313.188 546.977V547.472ZM1047.76 1883.75C1108.81 1828.98 1139.58 1754.46 1139.58 1660.7C1139.58 1566.95 1108.81 1491.94 1047.76 1436.19C986.714 1380.42 900.845 1352.3 790.66 1352.3H313.188L313.187 1965.66H790.66C900.845 1965.66 986.714 1938.03 1047.76 1883.25V1883.75Z" fill="#D54F2F"/>
<path d="M4147.37 774.629V1052.94H4051.08C3926.51 1052.94 3823.27 1088.47 3740.88 1159.03C3658.48 1230.09 3617.29 1330.26 3617.29 1459.54V2243.64H3301.12L3301.13 774.134H3595.94V965.596C3700.17 827.92 3843.62 759.329 4026.27 759.329C4070.44 759.329 4110.64 764.268 4146.88 774.134L4147.37 774.629Z" fill="#D54F2F"/>
<path d="M4304.65 0L4620.81 5.52796e-05V2244.23H4304.65V0ZM5650.22 2244.23H5271L4629.75 1418.19L5207.48 774.723H5598.59L5002.49 1421.15L5649.7 2244.23H5650.22Z" fill="#D54F2F"/>
<path d="M7627.65 2244.23H7311.48V0L7627.65 5.52796e-05V2244.23Z" fill="#D54F2F"/>
<path d="M12346.5 1993.34L13129.7 1993.34V2277.57H12027.4V302.765H12346.5V1993.34Z" fill="#D54F2F"/>
<path d="M2325.83 748.013C1914.37 748.013 1579.84 1088.5 1579.84 1513.86C1579.84 1939.21 1942.66 2283.65 2378.94 2283.65C2607.25 2283.65 2811.25 2190.38 2957.66 2040.37L2806.78 1821.77C2709 1935.26 2562.08 2008.3 2395.32 2008.3C2138.71 2008.3 1930.75 1842 1877.64 1619.46H3063.88C3067.85 1582.94 3067.85 1550.37 3067.85 1513.86C3067.85 1088.5 2737.79 748.013 2325.83 748.013ZM1897.99 1368.29C1951.1 1161.53 2122.33 1011.52 2325.83 1011.52C2529.33 1011.52 2701.06 1161.53 2749.7 1368.29H1897.99Z" fill="#D54F2F"/>
<path d="M16186.6 1546.95C16186.6 1121.6 15852.6 781.111 15440.6 781.111C15028.7 781.111 14694.7 1121.6 14694.7 1546.95C14694.7 1972.31 15057.5 2316.74 15493.7 2316.74C15722.1 2316.74 15930 2223.48 16072.5 2073.47L15921.6 1854.87C15823.8 1968.36 15676.9 2041.4 15510.1 2041.4C15257.5 2041.4 15045.6 1875.1 14992.5 1652.55H16178.7C16182.7 1616.03 16186.6 1583.47 16186.6 1546.95ZM15016.8 1401.38C15065.9 1194.63 15236.6 1044.62 15440.6 1044.62C15644.7 1044.62 15815.9 1194.63 15868.5 1401.38H15016.8Z" fill="#D54F2F"/>
<path d="M6368.52 748.013C5957.01 748.013 5622.53 1088.5 5622.53 1513.86C5622.53 1939.21 5985.33 2283.65 6421.61 2283.65C6649.92 2283.65 6857.88 2190.38 7000.36 2040.37L6849.44 1821.77C6751.66 1935.26 6604.75 2008.3 6437.98 2008.3C6185.37 2008.3 5973.44 1842 5920.3 1619.46H7106.53C7110.55 1582.94 7114.51 1550.37 7114.51 1513.86C7114.51 1088.5 6780.44 748.013 6368.52 748.013ZM5944.65 1368.29C5993.78 1161.53 6164.51 1011.52 6368.52 1011.52C6572.47 1011.52 6743.73 1161.53 6796.35 1368.29H5944.65Z" fill="#D54F2F"/>
<path d="M8680.02 2008.3C8427.41 2008.3 8215.48 1842 8162.34 1619.46H9348.57C9352.53 1582.94 9356.54 1550.37 9356.54 1513.86C9356.54 1088.5 9022.48 748.013 8610.56 748.013C8198.58 748.013 7864.57 1088.5 7864.57 1513.86C7864.57 1939.21 8227.37 2283.65 8663.64 2283.65C8891.95 2283.65 9099.92 2190.38 9242.39 2040.37L9091.47 1821.77C8993.69 1935.26 8846.79 2008.3 8680.02 2008.3ZM8610.56 1011.52C8814.51 1011.52 8985.77 1161.53 9038.38 1368.29H8186.69C8235.81 1161.53 8406.55 1011.52 8610.56 1011.52Z" fill="#D54F2F"/>
<path d="M13299 574.662C13213.6 489.789 13213.6 351.622 13299 266.254C13384.4 181.38 13523.9 181.38 13609.2 266.254C13694.6 351.129 13694.6 489.789 13609.2 574.662C13523.9 659.538 13384.9 659.538 13299 574.662Z" fill="#D54F2F"/>
<path d="M14425.2 340.977C14473.3 302.981 14545.7 284.23 14642 284.23C14678.3 284.23 14720.4 287.19 14768.6 293.112V27.1402C14710.5 9.37588 14642 0.000257765 14564.1 0.000244141C14401.8 0.000215763 14273.2 42.4372 14179 127.311C14084.6 212.186 14037.5 340.484 14037.5 511.712V807.785H13827.1V1080.17H14050.9V2219.07C14050.9 2312.82 14026.6 2378.45 13978.4 2416.45C13932.8 2452.46 13865.8 2470.73 13776.9 2472.7V2755.94C13792.8 2756.93 13808.7 2757.42 13826.5 2757.42C13988.8 2757.42 14117.4 2714.98 14211.7 2630.11C14300 2550.67 14346.7 2432.73 14352.1 2276.8H14353.1V1079.68H14702.1V807.29H14353.1V537.867C14353.1 444.109 14377.5 378.479 14425.6 340.484L14425.2 340.977Z" fill="#D54F2F"/>
<path d="M10538.6 774.577L10102.3 1845.87L9677.89 774.577H9337.93L9928.04 2177.96L9868.02 2315.64C9831.78 2397.55 9787.61 2453.8 9735.46 2484.89C9683.36 2515.98 9620.31 2531.28 9545.9 2531.28C9541.93 2531.28 9536.93 2531.28 9531.5 2531.28V2812.05C9559.3 2814.52 9587.09 2816 9615.36 2816C9741.92 2816 9848.15 2783.43 9934.51 2718.79C10020.9 2654.15 10094.8 2551.51 10157.3 2411.86L10876.6 775.073H10539.5L10538.6 774.577Z" fill="#D54F2F"/>
</g>
<defs>
<clipPath id="clip0_518_2">
<rect width="16187" height="2816" fill="white"/>
</clipPath>
</defs>
</svg>
